<svg xmlns="http://www.w3.org/2000/svg" viewBox="0 0 461.98 70.87"><defs><style>.cls-1{fill:#6a6a6a;}.cls-2{fill:#fff;}.cls-3{fill:#d4021d;}</style></defs><title>logo-desktop_it</title><g id="Ebene_2" data-name="Ebene 2"><g id="Ebene_1-2" data-name="Ebene 1"><rect class="cls-1" width="461.98" height="70.87"/><path class="cls-2" d="M100.79,27.93a10.9,10.9,0,0,0-4.65-1c-2,0-4.33.71-4.33,3.3,0,4.75,10.64,3.65,10.64,11.81,0,5.28-4.08,7.38-9,7.38a16.55,16.55,0,0,1-5.07-1l.35-3.3a15,15,0,0,0,5.14,1.21c2,0,4.86-1.13,4.86-4,0-5.53-10.64-4-10.64-11.7,0-4.4,3.48-6.74,7.94-6.74a16.53,16.53,0,0,1,5.28.89Z"/><path class="cls-2" d="M115,49h-4l-6.49-18.09h3.65l4.89,14.75h.07l5-14.75h3.33Z"/><path class="cls-2" d="M128.66,26.83h-3.76V23.07h3.76Zm-3.55,4h3.33V49h-3.33Z"/><path class="cls-2" d="M133.24,46l10.43-12.48h-9.93v-2.7h13.79v2.91L137.1,46.26h10.82V49H133.24Z"/><path class="cls-2" d="M151,46l10.43-12.48h-9.93v-2.7h13.79v2.91L154.83,46.26h10.82V49H151Z"/><path class="cls-2" d="M183.88,48.21a13.84,13.84,0,0,1-5.71,1.17c-6.42,0-9.36-3.9-9.36-9.79,0-5.35,3.37-9.15,8.47-9.15,6,0,8,4.4,8,10.21H172.35a5.92,5.92,0,0,0,6,6,10.7,10.7,0,0,0,5.57-1.81Zm-2.16-10c0-2.77-1.63-5-4.5-5-3.26,0-4.61,2.7-4.86,5Z"/><path class="cls-2" d="M189.73,30.87h3.12v2.8h.07a5.5,5.5,0,0,1,4.72-3.23,9.42,9.42,0,0,1,2.2.25v3a4.94,4.94,0,0,0-1.84-.32c-3,0-4.93,2.84-4.93,7.38V49h-3.33Z"/><path class="cls-2" d="M204.37,32.15a11.52,11.52,0,0,1,6-1.7c5.18,0,7.27,2.55,7.27,7.48v7.48a28.57,28.57,0,0,0,.14,3.55h-3.12V46.61h-.07a6.71,6.71,0,0,1-5.6,2.77c-3.9,0-6.63-1.7-6.63-5.64,0-4.54,5-6,8.4-6,1.31,0,2.23,0,3.55.07,0-3.12-1.13-4.72-4.47-4.72A8.5,8.5,0,0,0,204.55,35Zm9.89,8.19c-.71,0-1.42-.07-2.13-.07-1.81,0-6.28.28-6.28,3.48,0,1.91,1.84,2.94,3.37,2.94,3.3,0,5-2.06,5-4.75Z"/><path class="cls-2" d="M226,24.2h10.35l.39,16.63h.07l7.77-16.63h10.57L249.9,49h-6.45L248,28.67h-.07L238.17,49h-6.24L231,28.67h-.07L226.64,49h-6Z"/><path class="cls-2" d="M264.62,49.38c-6.84,0-9.61-3.79-9.61-8.44,0-6.49,4.68-10.89,11.91-10.89,6.28,0,9.61,3.62,9.61,8.26C276.53,46,271.53,49.38,264.62,49.38Zm2-14.86c-3.08,0-5,3.33-5,6.28,0,2.48,1.31,4.15,3.48,4.11,3,0,4.86-2.48,4.86-6.67C269.94,36.33,269.09,34.52,266.61,34.52Z"/><path class="cls-2" d="M277,49a42,42,0,0,0,1.28-4.61l4.89-22h6.28l-2.3,10.36h.07a7.87,7.87,0,0,1,6-2.66c4.54,0,6.88,3.48,6.88,7.62,0,6.06-3,11.7-9.72,11.7-3.16,0-5.28-1.28-6.42-3.9h-.07L282.92,49Zm11.63-4.47c3,0,4.82-2.87,4.82-5.75,0-2.27-1-3.79-3-3.79-3,0-4.82,3.33-4.82,5.78C285.58,42.61,286.5,44.49,288.63,44.49Z"/><path class="cls-2" d="M305.93,30.48h6.45L308.56,49H302.1Zm1.63-7.69H314l-1,4.68h-6.45Z"/><path class="cls-2" d="M319.44,22.36h6.45L320.36,49h-6.45Z"/><path class="cls-2" d="M341.89,48.35a23.59,23.59,0,0,1-6.45,1c-6.17,0-9.5-3.79-9.5-8.44,0-4.29,2.84-10.89,11.06-10.89,4.86,0,8.51,2.45,8.51,8a20.4,20.4,0,0,1-.46,3.48H332c.07,2,1.06,3.55,5,3.55a14.46,14.46,0,0,0,5.78-1.28ZM340.19,38c0-2-.78-3.65-3.12-3.65A4.72,4.72,0,0,0,332.35,38Z"/><polygon class="cls-3" points="0 0 70.87 0 70.87 70.87 0 70.87 0 0 0 0"/><polygon class="cls-2" points="28.34 9.98 42.56 9.98 42.56 26.09 57.67 21.2 62.22 34.86 46.78 39.75 56.33 52.97 44.89 61.3 35.45 48.53 25.56 61.41 14.68 52.86 24.01 39.75 8.67 34.86 13.23 21.2 28.34 26.09 28.34 9.98 28.34 9.98"/></g></g></svg>