<svg xmlns="http://www.w3.org/2000/svg" viewBox="0 0 47 46.96" width="47" height="46.96" preserveAspectRatio="xMinYMid"><defs><style>.cls-1{fill:#449dd7;}.cls-2{fill:#e41b18;}.cls-3{fill:#fff;}.cls-4{fill:#d30535;}</style></defs><title>logo_vl</title><g id="Ebene_2" data-name="Ebene 2"><g id="Ebene_1-2" data-name="Ebene 1"><polygon class="cls-1" points="0.04 0 47 0 47 46.96 0.04 46.96 0.04 0 0.04 0"/><polygon class="cls-2" points="32.54 37.3 40.7 35.27 40.71 43.94 32.54 45.97 32.54 37.3 32.54 37.3"/><polygon class="cls-3" points="35.8 37.81 35.8 39.92 33.82 40.41 33.82 42.2 35.78 41.71 35.8 43.8 37.46 43.39 37.48 41.29 39.43 40.81 39.43 39.02 37.46 39.51 37.46 37.39 35.8 37.81 35.8 37.81"/><path class="cls-3" d="M29.8,17c3.27.11,5.29,4.36,7.69,1.84,3.27-3.43,6.58-4.49,9.51-4.25V33.1c-6.68,1.68-19.15-.94-21-3.61s4.05-2.87-.25-3.85c-2.27-.51-2.58-2.66-2.27-4.08.75-3.42,3.19-4.67,6.28-4.57Z"/><path class="cls-3" d="M0,24.88c3.41-1.93,9-1.51,9.14,1.22.2,6.24,7.69,4.08,8.07,8.68C17.81,41.6,6.93,41.05,0,38.22V24.88Z"/><polygon class="cls-3" points="29.25 0 37.55 4.78 22.47 17.42 0.04 19.38 0.04 0 29.25 0 29.25 0"/><polygon class="cls-4" points="25.27 0 31.59 5.3 22.51 15.87 0.04 17.88 0.04 0 25.27 0 25.27 0"/><path class="cls-3" d="M12.49,10.07c.16,1.75,1.81,2.87,3.9,2.69A3.4,3.4,0,0,0,19.77,9.4c-.14-1.75-1.81-2.86-3.9-2.67s-3.53,1.66-3.38,3.33Zm-.72,0c-.18-2,1.64-3.84,4.06-4.05s4.52,1.26,4.7,3.29-1.64,3.84-4.06,4.05-4.52-1.26-4.7-3.29Z"/><path class="cls-3" d="M1.24,10.93,4,4l-.4-.77-.68.06-.06-.66,2.77-.24,0,.36-1.28.4.36.74,8-.7L12.22,2a.62.62,0,0,0-.6-.32l-1.57.13,0-.57,1.64-.14a1.21,1.21,0,0,1,1.23.64l3.55,7.81a.35.35,0,1,1-.62.32L13.7,5.25,8.22,10.73a1.33,1.33,0,0,1-.81.4l-5.76.5a.42.42,0,0,1-.36-.09.35.35,0,0,1-.12-.35,1.14,1.14,0,0,1,.07-.26Z"/><polygon class="cls-4" points="5.04 4.55 13.06 3.85 13.39 4.57 7.77 10.21 5.04 4.55 5.04 4.55"/><polygon class="cls-4" points="2.06 10.91 4.4 4.89 7.02 10.47 2.06 10.91 2.06 10.91"/><path class="cls-3" d="M0,14a4.49,4.49,0,0,0,1.67.15c2-.17,3.53-1.66,3.4-3.33S3.26,7.89,1.16,8.08A4.48,4.48,0,0,0,0,8.33m0-.7a5,5,0,0,1,1.1-.22c2.42-.21,4.52,1.26,4.7,3.29s-1.64,3.84-4.06,4.05A5.11,5.11,0,0,1,0,14.61"/></g></g></svg>
