<?xml version="1.0" encoding="utf-8"?>
<!-- Generator: Adobe Illustrator 19.0.0, SVG Export Plug-In . SVG Version: 6.00 Build 0)  -->
<svg version="1.1" id="Layer_1" xmlns="http://www.w3.org/2000/svg" xmlns:xlink="http://www.w3.org/1999/xlink" x="0px" y="0px"
	 viewBox="0 0 205.7 60" style="enable-background:new 0 0 205.7 60;" xml:space="preserve">
<style type="text/css">
	.st0{fill:#284C7B;}
	.st1{clip-path:url(#SVGID_2_);fill:#FF0000;}
	.st2{fill:#FFFFFF;}
	.st3{fill:#D1D470;}
	.st4{fill:#F5D652;}
	.st5{fill:#C7CB2B;}
	.st6{fill:#EBBD64;}
	.st7{fill:#EDD018;}
	.st8{fill:#F1DD78;}
	.st9{fill:#B1BB32;}
	.st10{fill:#8AB14D;}
	.st11{fill:#E7B037;}
	.st12{fill:#B4C232;}
	.st13{fill:#95B654;}
	.st14{fill:#68A450;}
	.st15{fill:#D8991F;}
	.st16{fill:#A9C271;}
	.st17{fill:#C7CE5A;}
	.st18{fill:#5D9F4A;}
	.st19{fill:#519249;}
	.st20{fill:#95B75E;}
	.st21{fill:#D1D57B;}
	.st22{fill:#A6CCE0;}
	.st23{fill:#7FAC46;}
	.st24{fill:#529A44;}
	.st25{fill:#78B8DA;}
	.st26{fill:#4F87C0;}
	.st27{fill:#5DA3CE;}
	.st28{fill:#447DBA;}
	.st29{fill:#6894C8;}
	.st30{fill:#8AA7D1;}
	.st31{fill:#5179AF;}
	.st32{fill:#7D95C5;}
	.st33{fill:#667FB8;}
	.st34{fill:#3C67A3;}
</style>
<g>
	<g>
		<g>
			<g>
				<g>
					<path class="st0" d="M90.4,46.4h-5.5V24.5h5.5V46.4z"/>
					<path class="st0" d="M107.7,41.4c-3.3,0-5.9-2.6-5.9-5.9c0-3.3,2.6-5.9,5.9-5.9c2,0,3.8,1,4.9,2.5l0,0l4.3-3.6
						c-2-2.6-5.4-4.4-9.2-4.4c-6.7,0-11.7,5-11.7,11.4c0,6.3,4.9,11.3,11.7,11.3c4.1,0,7.3-1.5,9.9-4.9l-4.7-3.5
						C111.8,40.2,109.9,41.4,107.7,41.4z"/>
					<path class="st0" d="M127.7,46.4h-5.5V24.5h5.5V46.4z"/>
				</g>
				<path class="st0" d="M143.7,24.7c-5.9,0-10.8,4.8-10.8,10.8v10.9h5.7V35.5c0-2.8,2.3-5.1,5.1-5.1c2.8,0,5.1,2.3,5.1,5.1v10.9
					h5.7V35.5C154.4,29.5,149.6,24.7,143.7,24.7z"/>
				<path class="st0" d="M170.3,24.1c-6.6,0-11.6,5.1-11.6,11.5c0,6.3,5,11.4,11.6,11.4c6.6,0,11.6-5.1,11.6-11.4
					C181.9,29.2,176.9,24.1,170.3,24.1z M170.3,41.5c-3.3,0-5.9-2.7-5.9-5.9c0-3.3,2.6-5.9,5.9-5.9c3.3,0,5.9,2.7,5.9,5.9
					C176.2,38.8,173.5,41.5,170.3,41.5z"/>
				<polygon class="st0" points="79.4,30 79.4,24.5 72.3,24.5 72.3,24.5 66.8,24.5 66.8,24.5 59.7,24.5 59.7,30 66.8,30 66.8,46.4 
					72.3,46.4 72.3,30 				"/>
			</g>
			<g>
				<g>
					<defs>
						<polyline id="SVGID_1_" points="190.5,27.9 190.5,43 205.7,43 205.7,27.9 190.5,27.9 						"/>
					</defs>
					<clipPath id="SVGID_2_">
						<use xlink:href="#SVGID_1_"  style="overflow:visible;"/>
					</clipPath>
					<path class="st1" d="M205.7,27.9h-15.2V43h15.2V27.9"/>
				</g>
				<polygon class="st2" points="202.8,34 199.5,34 199.5,30.7 196.6,30.7 196.6,34 193.3,34 193.3,36.9 196.6,36.9 196.6,40.2 
					199.5,40.2 199.5,36.9 202.8,36.9 				"/>
			</g>
		</g>
	</g>
	<g>
		<rect x="32.7" class="st3" width="5.5" height="5.5"/>
		<rect x="10.9" y="5.5" class="st4" width="5.5" height="5.5"/>
		<rect x="32.7" y="5.5" class="st5" width="5.5" height="5.5"/>
		<rect x="5.5" y="10.9" class="st6" width="5.5" height="5.5"/>
		<rect x="10.9" y="10.9" class="st7" width="5.5" height="5.5"/>
		<rect x="16.4" y="10.9" class="st4" width="5.5" height="5.5"/>
		<rect x="21.8" y="10.9" class="st8" width="5.5" height="5.5"/>
		<rect x="27.3" y="10.9" class="st5" width="5.5" height="5.5"/>
		<rect x="32.7" y="10.9" class="st9" width="5.5" height="5.5"/>
		<rect x="38.2" y="10.9" class="st5" width="5.5" height="5.5"/>
		<rect x="43.6" y="10.9" class="st10" width="5.5" height="5.5"/>
		<rect x="5.5" y="16.4" class="st11" width="5.5" height="5.5"/>
		<rect x="10.9" y="16.4" class="st4" width="5.5" height="5.5"/>
		<rect x="16.4" y="16.4" class="st12" width="5.5" height="5.5"/>
		<rect x="21.8" y="16.4" class="st9" width="5.5" height="5.5"/>
		<rect x="27.3" y="16.4" class="st12" width="5.5" height="5.5"/>
		<rect x="32.7" y="16.4" class="st13" width="5.5" height="5.5"/>
		<rect x="38.2" y="16.4" class="st10" width="5.5" height="5.5"/>
		<rect x="43.6" y="16.4" class="st14" width="5.5" height="5.5"/>
		<rect y="21.8" class="st11" width="5.5" height="5.5"/>
		<rect x="5.5" y="21.8" class="st15" width="5.5" height="5.5"/>
		<rect x="10.9" y="21.8" class="st11" width="5.5" height="5.5"/>
		<rect x="16.4" y="21.8" class="st16" width="5.5" height="5.5"/>
		<rect x="21.8" y="21.8" class="st17" width="5.5" height="5.5"/>
		<rect x="27.3" y="21.8" class="st18" width="5.5" height="5.5"/>
		<rect x="32.7" y="21.8" class="st19" width="5.5" height="5.5"/>
		<rect x="38.2" y="21.8" class="st18" width="5.5" height="5.5"/>
		<rect x="43.6" y="21.8" class="st10" width="5.5" height="5.5"/>
		<rect x="16.4" y="27.3" class="st20" width="5.5" height="5.5"/>
		<rect x="21.8" y="27.3" class="st21" width="5.5" height="5.5"/>
		<rect x="27.3" y="27.3" class="st22" width="5.5" height="5.5"/>
		<rect x="32.7" y="27.3" class="st18" width="5.5" height="5.5"/>
		<rect x="10.9" y="32.7" class="st23" width="5.5" height="5.5"/>
		<rect x="16.4" y="32.7" class="st24" width="5.5" height="5.5"/>
		<rect x="21.8" y="32.7" class="st23" width="5.5" height="5.5"/>
		<rect x="27.3" y="32.7" class="st25" width="5.5" height="5.5"/>
		<rect x="32.7" y="32.7" class="st14" width="5.5" height="5.5"/>
		<rect x="16.4" y="38.2" class="st26" width="5.5" height="5.5"/>
		<rect x="21.8" y="38.2" class="st25" width="5.5" height="5.5"/>
		<rect x="27.3" y="38.2" class="st27" width="5.5" height="5.5"/>
		<rect x="32.7" y="38.2" class="st25" width="5.5" height="5.5"/>
		<rect x="16.4" y="43.6" class="st28" width="5.5" height="5.5"/>
		<rect x="21.8" y="43.6" class="st29" width="5.5" height="5.5"/>
		<rect x="27.3" y="43.6" class="st30" width="5.5" height="5.5"/>
		<rect x="32.7" y="43.6" class="st31" width="5.5" height="5.5"/>
		<rect x="16.4" y="49.1" class="st26" width="5.5" height="5.5"/>
		<rect x="21.8" y="49.1" class="st32" width="5.5" height="5.5"/>
		<rect x="27.3" y="49.1" class="st33" width="5.5" height="5.5"/>
		<rect x="32.7" y="49.1" class="st34" width="5.5" height="5.5"/>
		<rect x="32.7" y="54.5" class="st31" width="5.5" height="5.5"/>
	</g>
</g>
</svg>
